<svg xmlns="http://www.w3.org/2000/svg" width="50pt" height="50pt" viewBox="0 0 50 50"><path style="stroke:none;fill-rule:nonzero;fill:#000;fill-opacity:1" d="M48.875 41.36h-2.441c.187-.368.293-.782.293-1.223V20.266a.733.733 0 1 0-1.465 0l.004 19.87a1.224 1.224 0 0 1-1.223 1.22l-38.086.003a1.224 1.224 0 0 1-1.219-1.222l-.004-25.39a1.224 1.224 0 0 1 1.223-1.22l19.434-.004c-.254.45-.286.993-.09 1.47H6.934a.73.73 0 0 0-.73.73V31.19c0 .407.327.73.73.73a.73.73 0 0 0 .734-.73l-.004-14.734 12.031-.004c-.101.402-.215.89-.265 1.266a.217.217 0 0 1-.106.152l-1.226.703a.203.203 0 0 1-.184.016 14.565 14.565 0 0 0-1.434-.461 1.683 1.683 0 0 0-1.906.777l-.66 1.145a1.674 1.674 0 0 0 .277 2.039c.317.308.766.734 1.118 1.008a.21.21 0 0 1 .078.168v1.41a.213.213 0 0 1-.078.164c-.352.273-.801.7-1.118 1.008a1.674 1.674 0 0 0-.277 2.039l.66 1.144a1.678 1.678 0 0 0 1.906.778c.426-.118 1.02-.293 1.434-.461a.203.203 0 0 1 .184.015l1.226.707a.197.197 0 0 1 .106.149c.062.445.207 1.043.316 1.468a1.68 1.68 0 0 0 1.629 1.262h1.324c.766 0 1.434-.52 1.63-1.261.108-.426.253-1.024.316-1.47a.19.19 0 0 1 .105-.148l1.223-.707a.204.204 0 0 1 .183-.015 14.98 14.98 0 0 0 1.438.46 1.685 1.685 0 0 0 1.906-.777l.66-1.144a1.675 1.675 0 0 0-.281-2.04c-.313-.308-.762-.734-1.117-1.007a.227.227 0 0 1-.078-.164v-1.41c0-.067.03-.13.078-.168.355-.274.804-.7 1.117-1.008.55-.535.664-1.375.281-2.04l-.66-1.144a1.685 1.685 0 0 0-1.906-.777 14.98 14.98 0 0 0-1.438.46.216.216 0 0 1-.183-.01l-1.223-.708a.197.197 0 0 1-.105-.152 13.848 13.848 0 0 0-.266-1.266h1.758c.406.586 1.14.852 1.828.66a14.98 14.98 0 0 0 1.437-.46.205.205 0 0 1 .184.015l1.227.707a.202.202 0 0 1 .101.148c.063.446.207 1.043.316 1.47a1.684 1.684 0 0 0 1.63 1.26h1.324c.77 0 1.437-.519 1.629-1.26.109-.427.253-1.024.316-1.47a.207.207 0 0 1 .105-.148l1.223-.707a.212.212 0 0 1 .188-.016c.414.168 1.007.344 1.433.461a1.678 1.678 0 0 0 1.828-.66h1.426l.004 21.973-34.668.004v-4.078a.733.733 0 0 0-1.465 0v4.808c0 .406.328.73.73.73h36.133a.736.736 0 0 0 .52-.214.714.714 0 0 0 .21-.516V15.723a.73.73 0 0 0-.73-.73h-1.32c.195-.477.16-1.02-.094-1.47h2.391c.672.004 1.219.551 1.219 1.223v2.41a.733.733 0 0 0 1.465 0v-2.41a2.686 2.686 0 0 0-2.684-2.684h-3.855a.204.204 0 0 1-.016-.082v-1.41a.21.21 0 0 1 .078-.168c.352-.273.8-.699 1.117-1.007a1.674 1.674 0 0 0 .278-2.04l-.66-1.144a1.688 1.688 0 0 0-1.907-.777c-.426.117-1.02.296-1.433.46a.225.225 0 0 1-.188-.011l-1.223-.707a.206.206 0 0 1-.105-.153c-.063-.445-.207-1.043-.316-1.468a1.677 1.677 0 0 0-1.63-1.258H32.86a1.68 1.68 0 0 0-1.629 1.258c-.109.425-.253 1.023-.316 1.468a.202.202 0 0 1-.102.153l-1.226.703a.204.204 0 0 1-.184.016 15.764 15.764 0 0 0-1.437-.461 1.685 1.685 0 0 0-1.906.777l-.66 1.144a1.674 1.674 0 0 0 .277 2.04c.316.308.765.734 1.117 1.007a.21.21 0 0 1 .078.168v1.41a.204.204 0 0 1-.016.082H5.957a2.686 2.686 0 0 0-2.684 2.684v25.39c0 .442.106.856.293 1.223H1.125C.504 41.36 0 41.86 0 42.48v1.954a3.274 3.274 0 0 0 3.273 3.27h34.215a.73.73 0 1 0 0-1.462H3.273a1.812 1.812 0 0 1-1.808-1.808V42.82h18.308v.442a1.908 1.908 0 0 0 1.907 1.902h6.64c1.051 0 1.903-.852 1.903-1.902v-.442h18.312v1.614c0 .996-.808 1.804-1.808 1.808h-6.079a.73.73 0 1 0 0 1.461h6.079A3.274 3.274 0 0 0 50 44.433V42.48c0-.62-.504-1.12-1.125-1.12zM22.91 16.616c.14.551.242 1.012.285 1.305.07.512.375.96.82 1.219l1.227.703c.445.261.985.3 1.465.105.273-.11.73-.254 1.277-.41a.223.223 0 0 1 .246.102l.665 1.144a.22.22 0 0 1-.04.262c-.406.394-.757.715-.992.898a1.67 1.67 0 0 0-.644 1.32v1.41c0 .52.234 1 .644 1.321.235.18.586.5.992.899.07.066.086.175.04.261l-.665 1.14a.218.218 0 0 1-.246.102c-.547-.152-1.004-.3-1.277-.41a1.667 1.667 0 0 0-1.465.106l-1.226.703c-.446.258-.75.707-.82 1.219-.044.293-.145.757-.286 1.304a.225.225 0 0 1-.21.164h-1.325a.218.218 0 0 1-.21-.164 14.113 14.113 0 0 1-.286-1.304 1.653 1.653 0 0 0-.824-1.215l-1.223-.707a1.683 1.683 0 0 0-1.465-.106c-.273.11-.73.258-1.281.41a.21.21 0 0 1-.242-.101l-.664-1.14a.219.219 0 0 1 .039-.262c.402-.399.758-.72.992-.899a1.66 1.66 0 0 0 .64-1.32v-1.41a1.66 1.66 0 0 0-.64-1.32c-.234-.184-.59-.505-.992-.9a.22.22 0 0 1-.04-.26l.665-1.145a.216.216 0 0 1 .242-.102c.55.156 1.008.3 1.281.41.477.196 1.02.156 1.465-.105l1.223-.703c.449-.258.754-.707.824-1.22.043-.292.144-.753.285-1.304a.221.221 0 0 1 .207-.164h1.332c.098.004.184.07.207.164zm3.793-8.265a.214.214 0 0 1-.035-.262l.66-1.145a.223.223 0 0 1 .246-.101c.551.156 1.004.3 1.281.41a1.647 1.647 0 0 0 1.461-.106l1.227-.703a1.69 1.69 0 0 0 .824-1.218c.04-.293.14-.754.281-1.305a.23.23 0 0 1 .211-.164h1.325c.101 0 .187.07.21.164.141.55.243 1.012.286 1.305.07.511.375.96.824 1.218l1.226.703c.442.262.985.301 1.461.106.274-.11.73-.254 1.278-.41.097-.024.199.015.25.101l.66 1.145a.214.214 0 0 1-.035.262 15.21 15.21 0 0 1-.992.898c-.41.316-.649.8-.645 1.32v1.41c0 .52.234 1 .645 1.32.23.18.586.5.992.9.07.066.082.175.035.26l-.66 1.142a.226.226 0 0 1-.25.101c-.547-.152-1.004-.3-1.278-.41a1.668 1.668 0 0 0-1.464.105l-1.223.704c-.45.257-.754.707-.824 1.218-.043.293-.145.758-.285 1.305a.218.218 0 0 1-.211.164h-1.325a.225.225 0 0 1-.21-.164 12.682 12.682 0 0 1-.282-1.305 1.664 1.664 0 0 0-.824-1.215l-1.227-.707a1.673 1.673 0 0 0-1.46-.105c-.278.11-.731.258-1.282.41a.218.218 0 0 1-.246-.101l-.129-.223c-.004-.008-.008-.016-.015-.024l-.516-.894a.213.213 0 0 1 .035-.262c.406-.398.758-.719.992-.898a1.66 1.66 0 0 0 .64-1.32v-1.41a1.66 1.66 0 0 0-.64-1.321 14.246 14.246 0 0 1-.992-.898zm2.059 34.91a.449.449 0 0 1-.442.441h-6.64a.443.443 0 0 1-.438-.441v-.442h7.516zm0 0"/><path style="stroke:none;fill-rule:nonzero;fill:#000;fill-opacity:1" d="M33.523 15.262a3.997 3.997 0 0 0 3.997-3.989c0-2.199-1.793-3.988-3.997-3.988-2.203 0-4 1.79-4 3.988 0 2.2 1.797 3.989 4 3.989zm-1.144-1.739h2.285a2.532 2.532 0 0 1-2.285 0zm1.144-4.773a2.532 2.532 0 0 1 2.407 3.313h-4.813a2.456 2.456 0 0 1-.129-.79 2.532 2.532 0 0 1 2.535-2.523zM18.04 23.969a3.997 3.997 0 0 0 7.992 0 3.997 3.997 0 0 0-7.992 0zm6.527 0a2.532 2.532 0 0 1-5.063 0 2.532 2.532 0 0 1 5.063 0zm0 0"/></svg>