<?xml version="1.0" encoding="UTF-8"?>
<svg xmlns="http://www.w3.org/2000/svg" id="Layer_3" data-name="Layer 3" viewBox="0 0 64 64" width="512" height="512"><path d="M36,40H31V36.981A9.983,9.983,0,0,0,35,29h.5a3.492,3.492,0,0,0,.5-6.949V13a4,4,0,0,0-4-4H18a4,4,0,0,0-4,4v9.051A3.492,3.492,0,0,0,14.5,29H15a9.983,9.983,0,0,0,4,7.981V40H14A13.015,13.015,0,0,0,1,53v9a1,1,0,0,0,1,1H48a1,1,0,0,0,1-1V53A13.015,13.015,0,0,0,36,40ZM28.105,52.447,29.9,56.032,27.77,61H22.23L20.1,56.032,21.9,52.447a1,1,0,0,0-.5-1.366l-5.831-2.5,4.545-6.06.771.771a5.828,5.828,0,0,0,8.242,0l.771-.771,4.545,6.06-5.831,2.5a1,1,0,0,0-.5,1.366ZM37,25.5A1.5,1.5,0,0,1,35.5,27H35V24h.5A1.5,1.5,0,0,1,37,25.5ZM14.5,27a1.5,1.5,0,0,1,0-3H15v3ZM16,13a2,2,0,0,1,2-2H32a2,2,0,0,1,2,2v9H32a1,1,0,0,1-1-1V18a1,1,0,0,0-1.316-.949l-2.413.805-.564-.563A1,1,0,0,0,26,17H20a1,1,0,0,0-1,1v3a1,1,0,0,1-1,1H16Zm1,16V24h1a3,3,0,0,0,3-3V19h4.586l.707.707a1,1,0,0,0,1.023.242L29,19.387V21a3,3,0,0,0,3,3h1v5a8,8,0,0,1-16,0Zm8,10a9.929,9.929,0,0,0,4-.841v2.427l-1.293,1.293a3.829,3.829,0,0,1-5.414,0L21,40.586V38.159A9.929,9.929,0,0,0,25,39ZM3,53A11.013,11.013,0,0,1,14,42h4l-4.8,6.4a1,1,0,0,0,.406,1.519L19.631,52.5l-1.526,3.052a1,1,0,0,0-.024.841L20.055,61H3Zm44,8H29.945l1.974-4.606a1,1,0,0,0-.024-.841L30.369,52.5l6.025-2.582A1,1,0,0,0,36.8,48.4L32,42h4A11.013,11.013,0,0,1,47,53Z"/><path d="M60,1H42a3,3,0,0,0-3,3V18a3,3,0,0,0,3,3h5v5a1,1,0,0,0,1.6.8L56.333,21H60a3,3,0,0,0,3-3V4A3,3,0,0,0,60,1Zm1,17a1,1,0,0,1-1,1H56a1,1,0,0,0-.6.2L49,24V20a1,1,0,0,0-1-1H42a1,1,0,0,1-1-1V4a1,1,0,0,1,1-1H60a1,1,0,0,1,1,1Z"/><rect x="43" y="7" width="16" height="2"/><rect x="43" y="11" width="16" height="2"/></svg>
