<svg xmlns="http://www.w3.org/2000/svg" width="50pt" height="50pt" viewBox="0 0 50 50"><path style="stroke:none;fill-rule:nonzero;fill:#000;fill-opacity:1" d="M28.125 31.25h-3.906v-2.36a7.8 7.8 0 0 0 3.125-6.234h.39a2.725 2.725 0 0 0 2.727-2.531 2.732 2.732 0 0 0-2.336-2.898v-7.07A3.124 3.124 0 0 0 25 7.03H14.062a3.124 3.124 0 0 0-3.124 3.125v7.07a2.732 2.732 0 0 0-2.336 2.899 2.725 2.725 0 0 0 2.726 2.531h.39a7.8 7.8 0 0 0 3.126 6.235v2.359h-3.906C5.332 31.258.789 35.8.78 41.406v7.032c0 .43.352.78.781.78H37.5c.43 0 .781-.35.781-.78v-7.032c-.008-5.605-4.55-10.148-10.156-10.156zm-6.168 9.723 1.402 2.8-1.664 3.883h-4.328l-1.664-3.883 1.406-2.8a.772.772 0 0 0 .036-.618.789.789 0 0 0-.426-.449l-4.555-1.953 3.55-4.734.602.601a4.546 4.546 0 0 0 6.438 0l.605-.601 3.551 4.734-4.558 1.953a.801.801 0 0 0-.426.45.805.805 0 0 0 .035.617zm6.95-21.051a1.17 1.17 0 0 1-1.173 1.172h-.39V18.75h.39a1.17 1.17 0 0 1 1.172 1.172zm-17.579 1.172a1.17 1.17 0 0 1-1.172-1.172 1.17 1.17 0 0 1 1.172-1.172h.39v2.344zM12.5 10.156c0-.863.7-1.562 1.563-1.562H25c.863 0 1.563.699 1.563 1.562v7.031H25a.784.784 0 0 1-.781-.78v-2.345a.78.78 0 0 0-.324-.632.78.78 0 0 0-.704-.11l-1.886.63-.442-.438a.768.768 0 0 0-.55-.23h-4.688a.784.784 0 0 0-.781.78v2.344c0 .43-.352.782-.781.782H12.5zm.781 12.5V18.75h.781a2.346 2.346 0 0 0 2.344-2.344v-1.562h3.582l.555.55c.207.211.516.286.797.192l1.316-.441v1.261A2.346 2.346 0 0 0 25 18.75h.781v3.906a6.248 6.248 0 0 1-6.25 6.25 6.248 6.248 0 0 1-6.25-6.25zm6.25 7.813c1.074 0 2.14-.223 3.125-.657v1.895l-1.011 1.012a2.987 2.987 0 0 1-4.227 0l-1.012-1.012v-1.895c.985.434 2.051.657 3.125.657zM2.344 41.406a8.604 8.604 0 0 1 8.594-8.593h3.124l-3.75 5A.784.784 0 0 0 10.629 39l4.708 2.015-1.191 2.382a.795.795 0 0 0-.02.66l1.543 3.598H2.344zm34.375 6.25H23.395l1.543-3.597a.786.786 0 0 0-.02-.657l-1.191-2.386L28.434 39a.793.793 0 0 0 .445-.516.778.778 0 0 0-.129-.672l-3.75-5h3.125a8.604 8.604 0 0 1 8.594 8.594zM46.875.781H32.812a2.346 2.346 0 0 0-2.343 2.344v10.938a2.346 2.346 0 0 0 2.343 2.343h3.907v3.907a.781.781 0 0 0 1.25.625l6.043-4.532h2.863a2.346 2.346 0 0 0 2.344-2.343V3.124A2.346 2.346 0 0 0 46.875.781zm.781 13.281c0 .43-.351.782-.781.782H43.75a.786.786 0 0 0-.469.156l-5 3.75v-3.125a.784.784 0 0 0-.781-.781h-4.688a.784.784 0 0 1-.78-.781V3.124c0-.43.35-.781.78-.781h14.063c.43 0 .781.351.781.781zm0 0"/><path style="stroke:none;fill-rule:nonzero;fill:#000;fill-opacity:1" d="M33.594 5.469h12.5V7.03h-12.5zM33.594 8.594h12.5v1.562h-12.5zm0 0"/></svg>