<svg height="512pt" viewBox="0 -18 512.00009 512" width="512pt" xmlns="http://www.w3.org/2000/svg"><path d="m278.769531 326.089844 31.203125 31.199218c-52.503906 20.417969-115.023437 10.273438-158.449218-33.152343-43.402344-43.402344-53.582032-105.921875-33.152344-158.445313l31.199218 31.199219 83.816407-83.816406-111.792969-111.796875-10.28125 7.054687c-132.167969 90.699219-149.632812 278.964844-36.292969 392.308594 113.023438 113.023437 301.308594 96.308594 392.304688-36.289063l7.058593-10.28125-111.796874-111.796874zm-182.527343 53.332031c-96.722657-96.722656-86-255.746094 22.015624-339.039063l72.691407 72.691407-41.378907 41.378906-39.050781-39.054687-9.6875 17.289062c-37.558593 67.039062-28.710937 154.484375 29.472657 212.667969 58.34375 58.34375 145.832031 66.921875 212.667968 29.472656l17.289063-9.6875-39.054688-39.050781 41.378907-41.378906 72.691406 72.691406c-84.429688 109.476562-243.558594 117.496094-339.035156 22.019531zm0 0"/><path d="m481.992188 0v71.753906h-45.476563v-71.753906h-30.007813v101.765625h75.484376v71.753906h30.007812v-173.519531zm0 0"/><path d="m371.292969 143.511719h-75.484375v-41.746094h75.484375v-101.765625h-105.492188v30.007812h75.484375v41.75h-75.484375v101.761719h105.492188zm0 0"/></svg>